<?xml version="1.0" encoding="UTF-8" standalone="no"?>
<!-- Created with Inkscape (http://www.inkscape.org/) -->

<svg
   xmlns:dc="http://purl.org/dc/elements/1.1/"
   xmlns:cc="http://creativecommons.org/ns#"
   xmlns:rdf="http://www.w3.org/1999/02/22-rdf-syntax-ns#"
   xmlns:svg="http://www.w3.org/2000/svg"
   xmlns="http://www.w3.org/2000/svg"
   xmlns:sodipodi="http://sodipodi.sourceforge.net/DTD/sodipodi-0.dtd"
   xmlns:inkscape="http://www.inkscape.org/namespaces/inkscape"
   width="1024"
   height="350"
   id="svg3180"
   version="1.1"
   inkscape:version="0.48.3.1 r9886"
   sodipodi:docname="New document 4">
  <defs
     id="defs3182">
    <clipPath
       clipPathUnits="userSpaceOnUse"
       id="clipPath3047">
      <path
         inkscape:connector-curvature="0"
         d="m 397.86,746.48 24.72,0 0,28.62 -24.72,0 0,-28.62 z"
         id="path3049" />
    </clipPath>
    <clipPath
       clipPathUnits="userSpaceOnUse"
       id="clipPath3035">
      <path
         inkscape:connector-curvature="0"
         d="m 397.86,730.76 24.72,0 0,13.56 -24.72,0 0,-13.56 z"
         id="path3037" />
    </clipPath>
    <clipPath
       clipPathUnits="userSpaceOnUse"
       id="clipPath3023">
      <path
         inkscape:connector-curvature="0"
         d="m 397.86,777.26 24.72,0 0,13.8 -24.72,0 0,-13.8 z"
         id="path3025" />
    </clipPath>
  </defs>
  <sodipodi:namedview
     id="base"
     pagecolor="#ffffff"
     bordercolor="#666666"
     borderopacity="1.0"
     inkscape:pageopacity="0.0"
     inkscape:pageshadow="2"
     inkscape:zoom="0.5"
     inkscape:cx="512"
     inkscape:cy="382"
     inkscape:current-layer="layer1"
     inkscape:document-units="px"
     showgrid="false"
     inkscape:window-width="962"
     inkscape:window-height="638"
     inkscape:window-x="25"
     inkscape:window-y="25"
     inkscape:window-maximized="0" />
  <metadata
     id="metadata3185">
    <rdf:RDF>
      <cc:Work
         rdf:about="">
        <dc:format>image/svg+xml</dc:format>
        <dc:type
           rdf:resource="http://purl.org/dc/dcmitype/StillImage" />
        <dc:title></dc:title>
      </cc:Work>
    </rdf:RDF>
  </metadata>
  <g
     id="layer1"
     inkscape:label="Layer 1"
     inkscape:groupmode="layer"
     transform="translate(0,-418)">
    <g
       id="g3015"
       transform="matrix(7.1772049,0,0,-5.329602,962.78099,588.36323)">
      <path
         inkscape:connector-curvature="0"
         d="m 0,0 c 6.42,13.32 6.42,13.32 6.42,13.32 -8.28,0 -8.28,0 -8.28,0 C -3.3,8.7 -3.3,8.7 -3.3,8.7 -3.54,8.1 -3.72,7.68 -3.72,7.26 -3.96,7.08 -3.96,6.66 -3.96,6.24 c -0.18,0.6 -0.36,1.26 -0.6,2.04 0,0.24 0,0.24 0,0.42 -1.68,4.62 -1.68,4.62 -1.68,4.62 -8.04,0 -8.04,0 -8.04,0 C -8.1,0 -8.1,0 -8.1,0 c -6,-12.9 -6,-12.9 -6,-12.9 -6.42,26.22 -6.42,26.22 -6.42,26.22 -8.1,0 -8.1,0 -8.1,0 -6.84,-27.24 -6.84,-27.24 -6.84,-27.24 -2.88,27.24 -2.88,27.24 -2.88,27.24 -7.44,0 -7.44,0 -7.44,0 -1.44,-6.9 -1.44,-6.9 -1.44,-6.9 -0.42,-1.62 -0.84,-3.3 -1.08,-4.56 -0.18,-1.44 -0.18,-2.7 -0.42,-3.96 -0.18,0 -0.18,0 -0.18,0 0,1.92 -0.42,4.38 -1.02,7.32 0,0.6 -0.24,0.78 -0.24,1.02 -1.44,7.08 -1.44,7.08 -1.44,7.08 -7.44,0 -7.44,0 -7.44,0 -3.12,-27.24 -3.12,-27.24 -3.12,-27.24 C -69,13.32 -69,13.32 -69,13.32 c -7.86,0 -7.86,0 -7.86,0 -6.66,-26.22 -6.66,-26.22 -6.66,-26.22 -5.82,12.06 -5.82,12.06 -5.82,12.06 6.06,14.16 6.06,14.16 6.06,14.16 -8.1,0 -8.1,0 -8.1,0 -4.8,-12.06 -4.8,-12.06 -4.8,-12.06 0,12.06 0,12.06 0,12.06 -7.02,0 -7.02,0 -7.02,0 0,-28.5 0,-28.5 0,-28.5 7.02,0 7.02,0 7.02,0 0,11.88 0,11.88 0,11.88 4.98,-11.88 4.98,-11.88 4.98,-11.88 14.76,0 14.76,0 14.76,0 0.6,3.54 0.6,3.54 0.6,3.54 5.58,0 5.58,0 5.58,0 0.66,-3.54 0.66,-3.54 0.66,-3.54 14.28,0 14.28,0 14.28,0 0.84,11.22 0.84,11.22 0.84,11.22 0,0.84 0.18,1.86 0.18,2.7 0,0.84 0,1.68 0.24,2.52 0,-0.84 0.18,-1.68 0.18,-2.52 0.24,-1.02 0.42,-1.86 0.6,-2.88 2.28,-11.04 2.28,-11.04 2.28,-11.04 4.38,0 4.38,0 4.38,0 2.28,11.04 2.28,11.04 2.28,11.04 0.18,1.02 0.42,1.86 0.6,2.88 0,0.84 0.24,1.68 0.24,2.52 0,-0.84 0.18,-1.68 0.18,-2.52 0,-0.84 0,-1.86 0.24,-2.7 0.78,-11.22 0.78,-11.22 0.78,-11.22 14.34,0 14.34,0 14.34,0 0.6,3.54 0.6,3.54 0.6,3.54 5.4,0 5.4,0 5.4,0 0.6,-3.54 0.6,-3.54 0.6,-3.54 14.34,0 14.34,0 14.34,0 2.28,6.48 2.28,6.48 2.28,6.48 0.42,0.6 0.42,1.02 0.6,1.44 0,0.42 0.18,0.6 0.18,0.84 0,-0.24 0,-0.66 0.24,-0.84 0,-0.42 0.18,-0.84 0.42,-1.44 2.28,-6.48 2.28,-6.48 2.28,-6.48 8.28,0 8.28,0 8.28,0 L 0,0 z m -74.58,-4.8 c 0.6,3.12 0.6,3.12 0.6,3.12 0.42,1.68 0.6,2.94 0.6,3.78 0.24,1.02 0.24,1.86 0.24,2.46 0.18,0 0.18,0 0.18,0 0,-0.6 0,-1.44 0.24,-2.46 0,-0.84 0.18,-2.1 0.6,-3.78 0.66,-3.12 0.66,-3.12 0.66,-3.12 l -3.12,0 z m 48.48,0 c 0.6,3.12 0.6,3.12 0.6,3.12 0.24,1.68 0.42,2.94 0.66,3.78 0,1.02 0.18,1.86 0.18,2.46 0.24,0 0.24,0 0.24,0 0,-0.6 0,-1.44 0,-2.46 0.18,-0.84 0.36,-2.1 0.6,-3.78 0.6,-3.12 0.6,-3.12 0.6,-3.12"
         style="fill:#334fa4;fill-opacity:1;fill-rule:nonzero;stroke:none"
         id="path3017" />
    </g>
    <g
       transform="matrix(7.1772049,0,0,-5.329602,-2838.4102,4648.3475)"
       id="g3019">
      <g
         id="g3021"
         clip-path="url(#clipPath3023)">
        <g
           id="g3027"
           transform="translate(401.34,791.06)">
          <path
             inkscape:connector-curvature="0"
             d="m 0,0 -3.72,-3.96 0,-9.72 24.84,0 L 21.12,0 0,0"
             style="fill:#b7c6e0;fill-opacity:1;fill-rule:nonzero;stroke:none"
             id="path3029" />
        </g>
      </g>
    </g>
    <g
       transform="matrix(7.1772049,0,0,-5.329602,-2838.4102,4648.3475)"
       id="g3031">
      <g
         id="g3033"
         clip-path="url(#clipPath3035)">
        <g
           id="g3039"
           transform="translate(397.62,744.32)">
          <path
             inkscape:connector-curvature="0"
             d="m 0,0 0,-9.54 3.72,-4.14 21.12,0 L 24.84,0 0,0"
             style="fill:#16386f;fill-opacity:1;fill-rule:nonzero;stroke:none"
             id="path3041" />
        </g>
      </g>
    </g>
    <g
       transform="matrix(7.1772049,0,0,-5.329602,-2838.4102,4648.3475)"
       id="g3043">
      <g
         id="g3045"
         clip-path="url(#clipPath3047)">
        <path
           inkscape:connector-curvature="0"
           d="m 397.86,746.6 24.6,0 0,28.5 -24.6,0 0,-28.5 z"
           style="fill:#334fa4;fill-opacity:1;fill-rule:nonzero;stroke:none"
           id="path3051" />
      </g>
    </g>
  </g>
</svg>
