<?xml version="1.0" encoding="utf-8"?>
<!-- Generator: Adobe Illustrator 23.0.2, SVG Export Plug-In . SVG Version: 6.00 Build 0)  -->
<svg version="1.1" id="Capa_1" xmlns="http://www.w3.org/2000/svg" xmlns:xlink="http://www.w3.org/1999/xlink" x="0px" y="0px"
	 viewBox="0 0 169.32 74.02" style="enable-background:new 0 0 169.32 74.02;" xml:space="preserve">
<style type="text/css">
	.st0{fill-rule:evenodd;clip-rule:evenodd;fill:#221E1F;}
	.st1{fill:none;stroke:#221E1F;stroke-width:0.216;}
	.st2{fill-rule:evenodd;clip-rule:evenodd;fill:#E1B546;}
	.st3{fill-rule:evenodd;clip-rule:evenodd;fill:#FFFFFF;}
</style>
<path class="st0" d="M125.46,5.43c0.19-3.16,0.29-4.75,0.29-4.75c1.86-0.34,3.74-0.52,5.63-0.57c0.83,3.06,1.24,4.59,1.24,4.59
	c1.83,0.02,3.64,0.19,5.45,0.51c1.39-2.85,2.08-4.28,2.08-4.28c1.85,0.4,3.66,0.94,5.43,1.62c-0.41,3.14-0.61,4.72-0.61,4.72
	c1.68,0.71,3.3,1.57,4.83,2.56c2.38-2.1,3.56-3.15,3.56-3.15c1.55,1.08,3.02,2.27,4.39,3.58c-1.58,2.75-2.37,4.13-2.37,4.13
	c1.28,1.3,2.45,2.71,3.49,4.21c3-1.03,4.5-1.55,4.5-1.55c1.02,1.59,1.92,3.25,2.69,4.98c-2.51,1.94-3.77,2.91-3.77,2.91
	c0.68,1.7,1.22,3.44,1.61,5.23c3.16,0.19,4.75,0.29,4.75,0.29c0.33,1.86,0.52,3.74,0.57,5.63c-3.06,0.83-4.59,1.24-4.59,1.24
	c-0.02,1.82-0.19,3.65-0.51,5.44c2.85,1.39,4.27,2.09,4.27,2.09c-0.4,1.85-0.94,3.66-1.62,5.42c-3.14-0.41-4.71-0.61-4.71-0.61
	c-0.72,1.68-1.57,3.29-2.57,4.83c2.1,2.38,3.15,3.56,3.15,3.56c-1.08,1.55-2.28,3.01-3.58,4.39c-2.75-1.58-4.12-2.37-4.12-2.37
	c-1.31,1.28-2.72,2.45-4.21,3.48c1.03,3,1.55,4.5,1.55,4.5c-1.59,1.02-3.25,1.92-4.98,2.69c-1.94-2.51-2.91-3.76-2.91-3.76
	c-1.69,0.68-3.44,1.22-5.23,1.6c-0.2,3.16-0.29,4.75-0.29,4.75c-1.86,0.34-3.75,0.52-5.64,0.57c-0.83-3.06-1.24-4.59-1.24-4.59
	c-1.82-0.02-3.65-0.19-5.44-0.51c-1.39,2.85-2.09,4.28-2.09,4.28c-1.84-0.4-3.66-0.94-5.42-1.62c0.41-3.15,0.61-4.72,0.61-4.72
	c-1.68-0.71-3.3-1.57-4.83-2.56c-2.37,2.1-3.56,3.15-3.56,3.15c-1.55-1.08-3.02-2.27-4.39-3.58c1.58-2.75,2.37-4.13,2.37-4.13
	c-1.28-1.3-2.45-2.71-3.49-4.21c-3,1.03-4.5,1.55-4.5,1.55c-1.02-1.59-1.93-3.25-2.69-4.98c2.51-1.94,3.77-2.91,3.77-2.91
	c-0.68-1.7-1.22-3.44-1.61-5.23c-3.16-0.19-4.75-0.29-4.75-0.29c-0.33-1.86-0.52-3.74-0.57-5.63c3.06-0.83,4.59-1.24,4.59-1.24
	c0.02-1.83,0.19-3.65,0.51-5.44c-2.85-1.39-4.28-2.09-4.28-2.09c0.4-1.85,0.95-3.66,1.63-5.42c3.14,0.4,4.71,0.61,4.71,0.61
	c0.71-1.68,1.57-3.3,2.57-4.83c-2.1-2.38-3.15-3.56-3.15-3.56c1.08-1.55,2.28-3.02,3.58-4.39c2.75,1.58,4.13,2.37,4.13,2.37
	c1.3-1.28,2.71-2.45,4.21-3.48c-1.03-3-1.55-4.5-1.55-4.5c1.59-1.02,3.25-1.92,4.98-2.69c1.93,2.51,2.9,3.76,2.9,3.76
	C121.93,6.34,123.68,5.81,125.46,5.43z"/>
<path class="st1" d="M125.46,5.43c0.19-3.16,0.29-4.75,0.29-4.75c1.86-0.34,3.74-0.52,5.63-0.57c0.83,3.06,1.24,4.59,1.24,4.59
	c1.83,0.02,3.64,0.19,5.45,0.51c1.39-2.85,2.08-4.28,2.08-4.28c1.85,0.4,3.66,0.94,5.43,1.62c-0.41,3.14-0.61,4.72-0.61,4.72
	c1.68,0.71,3.3,1.57,4.83,2.56c2.38-2.1,3.56-3.15,3.56-3.15c1.55,1.08,3.02,2.27,4.39,3.58c-1.58,2.75-2.37,4.13-2.37,4.13
	c1.28,1.3,2.45,2.71,3.49,4.21c3-1.03,4.5-1.55,4.5-1.55c1.02,1.59,1.92,3.25,2.69,4.98c-2.51,1.94-3.77,2.91-3.77,2.91
	c0.68,1.7,1.22,3.44,1.61,5.23c3.16,0.19,4.75,0.29,4.75,0.29c0.33,1.86,0.52,3.74,0.57,5.63c-3.06,0.83-4.59,1.24-4.59,1.24
	c-0.02,1.82-0.19,3.65-0.51,5.44c2.85,1.39,4.27,2.09,4.27,2.09c-0.4,1.85-0.94,3.66-1.62,5.42c-3.14-0.41-4.71-0.61-4.71-0.61
	c-0.72,1.68-1.57,3.29-2.57,4.83c2.1,2.38,3.15,3.56,3.15,3.56c-1.08,1.55-2.28,3.01-3.58,4.39c-2.75-1.58-4.12-2.37-4.12-2.37
	c-1.31,1.28-2.72,2.45-4.21,3.48c1.03,3,1.55,4.5,1.55,4.5c-1.59,1.02-3.25,1.92-4.98,2.69c-1.94-2.51-2.91-3.76-2.91-3.76
	c-1.69,0.68-3.44,1.22-5.23,1.6c-0.2,3.16-0.29,4.75-0.29,4.75c-1.86,0.34-3.75,0.52-5.64,0.57c-0.83-3.06-1.24-4.59-1.24-4.59
	c-1.82-0.02-3.65-0.19-5.44-0.51c-1.39,2.85-2.09,4.28-2.09,4.28c-1.84-0.4-3.66-0.94-5.42-1.62c0.41-3.15,0.61-4.72,0.61-4.72
	c-1.68-0.71-3.3-1.57-4.83-2.56c-2.37,2.1-3.56,3.15-3.56,3.15c-1.55-1.08-3.02-2.27-4.39-3.58c1.58-2.75,2.37-4.13,2.37-4.13
	c-1.28-1.3-2.45-2.71-3.49-4.21c-3,1.03-4.5,1.55-4.5,1.55c-1.02-1.59-1.93-3.25-2.69-4.98c2.51-1.94,3.77-2.91,3.77-2.91
	c-0.68-1.7-1.22-3.44-1.61-5.23c-3.16-0.19-4.75-0.29-4.75-0.29c-0.33-1.86-0.52-3.74-0.57-5.63c3.06-0.83,4.59-1.24,4.59-1.24
	c0.02-1.83,0.19-3.65,0.51-5.44c-2.85-1.39-4.28-2.09-4.28-2.09c0.4-1.85,0.95-3.66,1.63-5.42c3.14,0.4,4.71,0.61,4.71,0.61
	c0.71-1.68,1.57-3.3,2.57-4.83c-2.1-2.38-3.15-3.56-3.15-3.56c1.08-1.55,2.28-3.02,3.58-4.39c2.75,1.58,4.13,2.37,4.13,2.37
	c1.3-1.28,2.71-2.45,4.21-3.48c-1.03-3-1.55-4.5-1.55-4.5c1.59-1.02,3.25-1.92,4.98-2.69c1.93,2.51,2.9,3.76,2.9,3.76
	C121.93,6.34,123.68,5.81,125.46,5.43z"/>
<path class="st0" d="M80.61,35.51l-2.5-5.31h-8.73l-2.56,5.31h-3.76l10.66-21.44l10.66,21.44H80.61z M70.71,27.4h6.14l-2.26-4.7
	c-0.13-0.3-0.27-0.64-0.41-1.03c-0.14-0.39-0.28-0.82-0.42-1.3c-0.12,0.45-0.25,0.87-0.38,1.26c-0.13,0.39-0.27,0.75-0.41,1.08
	L70.71,27.4z M61.62,19.9c-1.01-0.8-2.09-1.41-3.21-1.82c-1.13-0.4-2.32-0.6-3.56-0.6c-2.4,0-4.36,0.72-5.87,2.17
	c-1.51,1.45-2.27,3.32-2.27,5.62c0,2.22,0.74,4.06,2.2,5.51c1.47,1.45,3.32,2.17,5.56,2.17c1.31,0,2.54-0.22,3.72-0.65
	c1.18-0.43,2.31-1.08,3.39-1.96v3.79c-0.96,0.65-2.01,1.14-3.14,1.45c-1.13,0.32-2.36,0.48-3.68,0.48c-1.68,0-3.24-0.26-4.67-0.77
	C48.66,34.77,47.41,34,46.32,33c-1.07-0.98-1.89-2.15-2.48-3.49c-0.57-1.34-0.86-2.77-0.86-4.27c0-1.51,0.29-2.93,0.86-4.26
	c0.58-1.33,1.41-2.5,2.51-3.5c1.09-1.02,2.35-1.78,3.76-2.3c1.41-0.52,2.94-0.78,4.59-0.78c1.29,0,2.53,0.18,3.7,0.53
	c1.18,0.36,2.31,0.89,3.41,1.61L61.62,19.9z M39.84,25.24c0,1.47-0.29,2.85-0.88,4.16c-0.59,1.3-1.44,2.47-2.57,3.5
	c-1.13,1.02-2.41,1.81-3.84,2.35c-1.43,0.54-2.92,0.82-4.48,0.82c-1.59,0-3.09-0.27-4.54-0.82c-1.44-0.55-2.71-1.33-3.81-2.34
	c-1.13-1.03-1.98-2.18-2.56-3.48c-0.58-1.29-0.88-2.68-0.88-4.17c0-1.48,0.29-2.87,0.88-4.17c0.58-1.31,1.43-2.48,2.56-3.51
	c1.13-1.02,2.4-1.8,3.82-2.34c1.42-0.53,2.93-0.8,4.53-0.8c1.58,0,3.08,0.27,4.5,0.8c1.42,0.54,2.69,1.32,3.81,2.34
	c1.12,1.04,1.98,2.22,2.57,3.53C39.55,22.4,39.84,23.78,39.84,25.24z M36.11,25.24c0-1.04-0.2-2.03-0.61-2.97
	c-0.41-0.94-0.99-1.77-1.75-2.5c-0.75-0.73-1.61-1.28-2.58-1.67c-0.98-0.39-2.01-0.59-3.09-0.59c-1.08,0-2.11,0.19-3.09,0.58
	c-0.98,0.39-1.85,0.94-2.61,1.68c-0.76,0.72-1.35,1.55-1.75,2.49c-0.4,0.94-0.6,1.93-0.6,2.99c0,1.04,0.2,2.03,0.6,2.96
	c0.4,0.93,0.99,1.76,1.75,2.49c0.76,0.73,1.63,1.29,2.6,1.67c0.97,0.39,2.01,0.58,3.1,0.58c1.07,0,2.09-0.19,3.06-0.58
	c0.96-0.38,1.84-0.94,2.61-1.67c0.76-0.73,1.34-1.56,1.75-2.5C35.91,27.25,36.11,26.27,36.11,25.24z M3.36,26.28v9.23H0V14.88h4.99
	c1.46,0,2.6,0.09,3.41,0.27c0.8,0.18,1.49,0.47,2.06,0.89c0.68,0.5,1.21,1.14,1.58,1.93c0.37,0.79,0.56,1.65,0.56,2.59
	c0,1.65-0.43,2.94-1.28,3.88c-0.86,0.93-2.11,1.49-3.78,1.68l7.58,9.39h-4.04l-7.33-9.23H3.36z M3.57,23.68h0.65
	c1.89,0,3.15-0.21,3.77-0.62c0.62-0.41,0.93-1.14,0.93-2.2c0-1.14-0.33-1.93-1-2.4c-0.67-0.47-1.91-0.7-3.71-0.7H3.57V23.68z"/>
<path class="st2" d="M75.92,55.57V41h8.68v2.02h-6.16v3.65h6.16v2.08h-6.16v4.71h6.16v2.12H75.92z M69.88,43.02v12.55h-2.53V43.02
	h-4.13V41h10.77v2.02H69.88z M55.03,49.05v6.52h-2.38V41h3.53c1.04,0,1.84,0.07,2.41,0.19c0.57,0.13,1.05,0.33,1.46,0.63
	c0.48,0.35,0.85,0.81,1.12,1.36c0.26,0.56,0.39,1.17,0.39,1.83c0,1.16-0.3,2.08-0.9,2.74c-0.6,0.66-1.49,1.05-2.66,1.19l5.35,6.63
	h-2.85l-5.18-6.52H55.03z M55.18,47.22h0.46c1.34,0,2.23-0.15,2.66-0.44c0.44-0.29,0.66-0.81,0.66-1.55c0-0.8-0.23-1.37-0.71-1.7
	c-0.47-0.33-1.34-0.49-2.62-0.49h-0.46V47.22z M41.07,55.57V41h8.69v2.02H43.6v3.65h6.16v2.08H43.6v4.71h6.16v2.12H41.07z M24.82,41
	h2.5v8.85c0,1.31,0.32,2.3,0.97,2.96c0.65,0.66,1.62,0.99,2.91,0.99c1.28,0,2.25-0.33,2.89-0.99c0.65-0.66,0.97-1.65,0.97-2.96V41
	h2.52v9.07c0,1.97-0.53,3.45-1.59,4.42c-1.06,0.98-2.66,1.47-4.8,1.47c-2.14,0-3.74-0.49-4.79-1.47c-1.05-0.98-1.58-2.45-1.58-4.43
	V41z M13.46,55.57V41h8.68v2.02h-6.16v3.63h6.16v2.08h-6.16v6.85H13.46z"/>
<path class="st3" d="M132.31,64.1c14.96,0,27.09-12.13,27.09-27.09c0-14.96-12.13-27.09-27.09-27.09
	c-14.96,0-27.08,12.13-27.08,27.09C105.22,51.97,117.35,64.1,132.31,64.1z"/>
<path class="st2" d="M132.31,60.85c13.17,0,23.84-10.67,23.84-23.84c0-13.16-10.67-23.84-23.84-23.84
	c-13.16,0-23.84,10.68-23.84,23.84C108.47,50.18,119.14,60.85,132.31,60.85z"/>
<rect x="134.16" y="56.14" transform="matrix(0.9053 -0.4247 0.4247 0.9053 -11.0185 65.5262)" class="st3" width="14.62" height="2.67"/>
<rect x="125.86" y="38.43" transform="matrix(0.9053 -0.4247 0.4247 0.9053 -4.2836 60.3256)" class="st3" width="14.62" height="2.67"/>
<rect x="127.52" y="41.97" transform="matrix(0.9052 -0.425 0.425 0.9052 -5.6259 61.4009)" class="st3" width="14.61" height="2.67"/>
<rect x="129.18" y="45.52" transform="matrix(0.9054 -0.4246 0.4246 0.9054 -6.9797 62.3864)" class="st3" width="14.62" height="2.68"/>
<rect x="130.84" y="49.06" transform="matrix(0.9053 -0.4247 0.4247 0.9053 -8.3252 63.4449)" class="st3" width="14.61" height="2.68"/>
<rect x="132.5" y="52.6" transform="matrix(0.9053 -0.4248 0.4248 0.9053 -9.6705 64.5051)" class="st3" width="14.62" height="2.67"/>
<path class="st3" d="M125.56,27.36c-0.92-1.96-1.38-2.94-1.38-2.94l-9.72,4.56l4.59,9.78l4.57-2.15l1.87,3.98l13.23-6.21l-1.86-3.98
	l4.57-2.14l-4.59-9.77l-9.75,4.58l1.38,2.94c0.06,0.75-0.32,1.44-0.95,1.74C126.87,28.04,126.1,27.9,125.56,27.36z"/>
</svg>
