<?xml version="1.0" encoding="utf-8"?>
<!-- Generator: Adobe Illustrator 23.0.2, SVG Export Plug-In . SVG Version: 6.00 Build 0)  -->
<svg version="1.1" id="Capa_1" xmlns="http://www.w3.org/2000/svg" xmlns:xlink="http://www.w3.org/1999/xlink" x="0px" y="0px"
	 viewBox="0 0 74.02 74.02" style="enable-background:new 0 0 74.02 74.02;" xml:space="preserve">
<style type="text/css">
	.st0{fill-rule:evenodd;clip-rule:evenodd;fill:#221E1F;}
	.st1{fill:none;stroke:#221E1F;stroke-width:0.216;}
	.st2{fill-rule:evenodd;clip-rule:evenodd;fill:#FFFFFF;}
	.st3{fill-rule:evenodd;clip-rule:evenodd;fill:#E1B546;}
</style>
<path class="st0" d="M30.17,5.43c0.19-3.16,0.29-4.75,0.29-4.75c1.86-0.34,3.74-0.52,5.63-0.57c0.83,3.06,1.24,4.59,1.24,4.59
	c1.83,0.02,3.64,0.19,5.45,0.51c1.39-2.85,2.08-4.28,2.08-4.28c1.85,0.4,3.66,0.94,5.43,1.62c-0.41,3.14-0.61,4.72-0.61,4.72
	c1.68,0.71,3.3,1.57,4.83,2.56c2.38-2.1,3.56-3.15,3.56-3.15c1.55,1.08,3.02,2.27,4.39,3.58c-1.58,2.75-2.37,4.13-2.37,4.13
	c1.28,1.3,2.45,2.71,3.49,4.21c3-1.03,4.5-1.55,4.5-1.55c1.02,1.59,1.92,3.25,2.69,4.98C68.25,23.97,67,24.94,67,24.94
	c0.68,1.7,1.22,3.44,1.61,5.23c3.16,0.19,4.75,0.29,4.75,0.29c0.33,1.86,0.52,3.74,0.57,5.63c-3.06,0.83-4.59,1.24-4.59,1.24
	c-0.02,1.82-0.19,3.65-0.51,5.44c2.85,1.39,4.27,2.09,4.27,2.09c-0.4,1.85-0.94,3.66-1.62,5.42c-3.14-0.41-4.71-0.61-4.71-0.61
	c-0.72,1.68-1.57,3.29-2.57,4.83c2.1,2.38,3.15,3.56,3.15,3.56c-1.08,1.55-2.28,3.01-3.58,4.39c-2.75-1.58-4.12-2.37-4.12-2.37
	c-1.31,1.28-2.72,2.45-4.21,3.48c1.03,3,1.55,4.5,1.55,4.5c-1.59,1.02-3.25,1.92-4.98,2.69C50.06,68.25,49.09,67,49.09,67
	c-1.69,0.68-3.44,1.22-5.23,1.6c-0.2,3.16-0.29,4.75-0.29,4.75c-1.86,0.34-3.75,0.52-5.64,0.57c-0.83-3.06-1.24-4.59-1.24-4.59
	c-1.82-0.02-3.65-0.19-5.44-0.51c-1.39,2.85-2.09,4.28-2.09,4.28c-1.84-0.4-3.66-0.94-5.42-1.62c0.41-3.15,0.61-4.72,0.61-4.72
	c-1.68-0.71-3.3-1.57-4.83-2.56c-2.37,2.1-3.56,3.15-3.56,3.15c-1.55-1.08-3.02-2.27-4.39-3.58c1.58-2.75,2.37-4.13,2.37-4.13
	c-1.28-1.3-2.45-2.71-3.49-4.21c-3,1.03-4.5,1.55-4.5,1.55c-1.02-1.59-1.93-3.25-2.69-4.98c2.51-1.94,3.77-2.91,3.77-2.91
	c-0.68-1.7-1.22-3.44-1.61-5.23c-3.16-0.19-4.75-0.29-4.75-0.29c-0.33-1.86-0.52-3.74-0.57-5.63c3.06-0.83,4.59-1.24,4.59-1.24
	c0.02-1.83,0.19-3.65,0.51-5.44c-2.85-1.39-4.28-2.09-4.28-2.09c0.4-1.85,0.95-3.66,1.63-5.42c3.14,0.4,4.71,0.61,4.71,0.61
	c0.71-1.68,1.57-3.3,2.57-4.83c-2.1-2.38-3.15-3.56-3.15-3.56c1.08-1.55,2.28-3.02,3.58-4.39c2.75,1.58,4.13,2.37,4.13,2.37
	c1.3-1.28,2.71-2.45,4.21-3.48c-1.03-3-1.55-4.5-1.55-4.5c1.59-1.02,3.25-1.92,4.98-2.69c1.93,2.51,2.9,3.76,2.9,3.76
	C26.63,6.34,28.38,5.81,30.17,5.43z"/>
<path class="st1" d="M30.17,5.43c0.19-3.16,0.29-4.75,0.29-4.75c1.86-0.34,3.74-0.52,5.63-0.57c0.83,3.06,1.24,4.59,1.24,4.59
	c1.83,0.02,3.64,0.19,5.45,0.51c1.39-2.85,2.08-4.28,2.08-4.28c1.85,0.4,3.66,0.94,5.43,1.62c-0.41,3.14-0.61,4.72-0.61,4.72
	c1.68,0.71,3.3,1.57,4.83,2.56c2.38-2.1,3.56-3.15,3.56-3.15c1.55,1.08,3.02,2.27,4.39,3.58c-1.58,2.75-2.37,4.13-2.37,4.13
	c1.28,1.3,2.45,2.71,3.49,4.21c3-1.03,4.5-1.55,4.5-1.55c1.02,1.59,1.92,3.25,2.69,4.98C68.25,23.97,67,24.94,67,24.94
	c0.68,1.7,1.22,3.44,1.61,5.23c3.16,0.19,4.75,0.29,4.75,0.29c0.33,1.86,0.52,3.74,0.57,5.63c-3.06,0.83-4.59,1.24-4.59,1.24
	c-0.02,1.82-0.19,3.65-0.51,5.44c2.85,1.39,4.27,2.09,4.27,2.09c-0.4,1.85-0.94,3.66-1.62,5.42c-3.14-0.41-4.71-0.61-4.71-0.61
	c-0.72,1.68-1.57,3.29-2.57,4.83c2.1,2.38,3.15,3.56,3.15,3.56c-1.08,1.55-2.28,3.01-3.58,4.39c-2.75-1.58-4.12-2.37-4.12-2.37
	c-1.31,1.28-2.72,2.45-4.21,3.48c1.03,3,1.55,4.5,1.55,4.5c-1.59,1.02-3.25,1.92-4.98,2.69C50.06,68.25,49.09,67,49.09,67
	c-1.69,0.68-3.44,1.22-5.23,1.6c-0.2,3.16-0.29,4.75-0.29,4.75c-1.86,0.34-3.75,0.52-5.64,0.57c-0.83-3.06-1.24-4.59-1.24-4.59
	c-1.82-0.02-3.65-0.19-5.44-0.51c-1.39,2.85-2.09,4.28-2.09,4.28c-1.84-0.4-3.66-0.94-5.42-1.62c0.41-3.15,0.61-4.72,0.61-4.72
	c-1.68-0.71-3.3-1.57-4.83-2.56c-2.37,2.1-3.56,3.15-3.56,3.15c-1.55-1.08-3.02-2.27-4.39-3.58c1.58-2.75,2.37-4.13,2.37-4.13
	c-1.28-1.3-2.45-2.71-3.49-4.21c-3,1.03-4.5,1.55-4.5,1.55c-1.02-1.59-1.93-3.25-2.69-4.98c2.51-1.94,3.77-2.91,3.77-2.91
	c-0.68-1.7-1.22-3.44-1.61-5.23c-3.16-0.19-4.75-0.29-4.75-0.29c-0.33-1.86-0.52-3.74-0.57-5.63c3.06-0.83,4.59-1.24,4.59-1.24
	c0.02-1.83,0.19-3.65,0.51-5.44c-2.85-1.39-4.28-2.09-4.28-2.09c0.4-1.85,0.95-3.66,1.63-5.42c3.14,0.4,4.71,0.61,4.71,0.61
	c0.71-1.68,1.57-3.3,2.57-4.83c-2.1-2.38-3.15-3.56-3.15-3.56c1.08-1.55,2.28-3.02,3.58-4.39c2.75,1.58,4.13,2.37,4.13,2.37
	c1.3-1.28,2.71-2.45,4.21-3.48c-1.03-3-1.55-4.5-1.55-4.5c1.59-1.02,3.25-1.92,4.98-2.69c1.93,2.51,2.9,3.76,2.9,3.76
	C26.63,6.34,28.38,5.81,30.17,5.43z"/>
<path class="st2" d="M37.01,64.1c14.96,0,27.09-12.13,27.09-27.09c0-14.96-12.13-27.09-27.09-27.09
	c-14.96,0-27.08,12.13-27.08,27.09C9.93,51.97,22.06,64.1,37.01,64.1z"/>
<path class="st3" d="M37.01,60.85c13.17,0,23.84-10.67,23.84-23.84c0-13.16-10.67-23.84-23.84-23.84
	c-13.16,0-23.84,10.68-23.84,23.84C13.18,50.18,23.85,60.85,37.01,60.85z"/>
<rect x="38.87" y="56.14" transform="matrix(0.9053 -0.4247 0.4247 0.9053 -20.0399 25.0543)" class="st2" width="14.62" height="2.67"/>
<rect x="30.56" y="38.43" transform="matrix(0.9053 -0.4247 0.4247 0.9053 -13.3064 19.8508)" class="st2" width="14.62" height="2.67"/>
<rect x="32.22" y="41.97" transform="matrix(0.9052 -0.425 0.425 0.9052 -14.6586 20.9049)" class="st2" width="14.61" height="2.67"/>
<rect x="33.88" y="45.52" transform="matrix(0.9054 -0.4246 0.4246 0.9054 -15.9964 21.9245)" class="st2" width="14.62" height="2.68"/>
<rect x="35.55" y="49.06" transform="matrix(0.9053 -0.4247 0.4247 0.9053 -17.3469 22.9726)" class="st2" width="14.61" height="2.68"/>
<rect x="37.21" y="52.6" transform="matrix(0.9053 -0.4248 0.4248 0.9053 -18.6974 24.0216)" class="st2" width="14.62" height="2.67"/>
<path class="st2" d="M30.26,27.36c-0.92-1.96-1.38-2.94-1.38-2.94l-9.72,4.56l4.59,9.78l4.57-2.15l1.87,3.98l13.23-6.21l-1.86-3.98
	l4.57-2.14l-4.59-9.77l-9.75,4.58L33.16,26c0.06,0.75-0.32,1.44-0.95,1.74C31.58,28.04,30.81,27.9,30.26,27.36z"/>
</svg>
